{
    "accessors" : [
        {
            "bufferView" : 0, 
            "componentType" : 5123, 
            "count" : 666, 
            "max" : [
                159
            ], 
            "min" : [
                0
            ], 
            "type" : "SCALAR"
        }, 
        {
            "bufferView" : 1, 
            "componentType" : 5126, 
            "count" : 160, 
            "max" : [
                0.20927847921848297, 
                1.82779860496521, 
                0.13775862753391266
            ], 
            "min" : [
                -0.2198868691921234, 
                1.0878788232803345, 
                -0.14849942922592163
            ], 
            "type" : "VEC3"
        }, 
        {
            "bufferView" : 2, 
            "componentType" : 5126, 
            "count" : 160, 
            "max" : [
                0.9893490672111511, 
                1.0, 
                0.999786376953125
            ], 
            "min" : [
                -0.9884639978408813, 
                -0.29606005549430847, 
                -0.999786376953125
            ], 
            "type" : "VEC3"
        }, 
        {
            "bufferView" : 3, 
            "componentType" : 5123, 
            "count" : 4128, 
            "max" : [
                1344
            ], 
            "min" : [
                0
            ], 
            "type" : "SCALAR"
        }, 
        {
            "bufferView" : 4, 
            "componentType" : 5126, 
            "count" : 1345, 
            "max" : [
                1.000000238418579, 
                1.087878942489624, 
                1.0000003576278687
            ], 
            "min" : [
                -0.9999998211860657, 
                -1.0, 
                -0.9999991655349731
            ], 
            "type" : "VEC3"
        }, 
        {
            "bufferView" : 5, 
            "componentType" : 5126, 
            "count" : 1345, 
            "max" : [
                1.0, 
                1.0, 
                1.0
            ], 
            "min" : [
                -1.0, 
                -1.0, 
                -1.0
            ], 
            "type" : "VEC3"
        }
    ], 
    "asset" : {
        "generator" : "Khronos Blender glTF 2.0 exporter", 
        "version" : "2.0"
    }, 
    "bufferViews" : [
        {
            "buffer" : 0, 
            "byteLength" : 1332, 
            "byteOffset" : 0, 
            "target" : 34963
        }, 
        {
            "buffer" : 0, 
            "byteLength" : 1920, 
            "byteOffset" : 1332, 
            "target" : 34962
        }, 
        {
            "buffer" : 0, 
            "byteLength" : 1920, 
            "byteOffset" : 3252, 
            "target" : 34962
        }, 
        {
            "buffer" : 0, 
            "byteLength" : 8256, 
            "byteOffset" : 5172, 
            "target" : 34963
        }, 
        {
            "buffer" : 0, 
            "byteLength" : 16140, 
            "byteOffset" : 13428, 
            "target" : 34962
        }, 
        {
            "buffer" : 0, 
            "byteLength" : 16140, 
            "byteOffset" : 29568, 
            "target" : 34962
        }
    ], 
    "buffers" : [
        {
            "byteLength" : 45708, 
            "uri" : "bomb.bin"
        }
    ], 
    "materials" : [
        {
            "name" : "Black_Color", 
            "pbrMetallicRoughness" : {
                "baseColorFactor" : [
                    0.0, 
                    0.0, 
                    0.0, 
                    1.0
                ], 
                "metallicFactor" : 0.0
            }
        }, 
        {
            "name" : "Material.001", 
            "pbrMetallicRoughness" : {
                "baseColorFactor" : [
                    0.7304791559350363, 
                    0.5843687621410005, 
                    0.3606286817882758, 
                    1.0
                ], 
                "metallicFactor" : 0.0
            }
        }
    ], 
    "meshes" : [
        {
            "name" : "Sphere", 
            "primitives" : [
                {
                    "attributes" : {
                        "NORMAL" : 2, 
                        "POSITION" : 1
                    }, 
                    "indices" : 0, 
                    "material" : 1
                }, 
                {
                    "attributes" : {
                        "NORMAL" : 5, 
                        "POSITION" : 4
                    }, 
                    "indices" : 3, 
                    "material" : 0
                }
            ]
        }
    ], 
    "nodes" : [
        {
            "mesh" : 0, 
            "name" : "Bomb", 
            "rotation" : [
                -5.029566232556972e-16, 
                1.5495992045089224e-08, 
                -0.11533287912607193, 
                0.9933269023895264
            ], 
            "scale" : [
                0.6843351125717163, 
                0.6843351125717163, 
                0.6843350529670715
            ], 
            "translation" : [
                0.0, 
                0.6882728338241577, 
                -0.0
            ]
        }
    ], 
    "scene" : 0, 
    "scenes" : [
        {
            "name" : "Scene", 
            "nodes" : [
                0
            ]
        }
    ]
}
