{
    "accessors" : [
        {
            "bufferView" : 0, 
            "componentType" : 5123, 
            "count" : 4194, 
            "max" : [
                1440
            ], 
            "min" : [
                0
            ], 
            "type" : "SCALAR"
        }, 
        {
            "bufferView" : 1, 
            "componentType" : 5126, 
            "count" : 1441, 
            "max" : [
                1.000000238418579, 
                1.82779860496521, 
                1.0000003576278687
            ], 
            "min" : [
                -0.9999998807907104, 
                -1.0, 
                -0.9999991655349731
            ], 
            "type" : "VEC3"
        }, 
        {
            "bufferView" : 2, 
            "componentType" : 5126, 
            "count" : 1441, 
            "max" : [
                1.0, 
                1.0, 
                1.0
            ], 
            "min" : [
                -1.0, 
                -1.0, 
                -1.0
            ], 
            "type" : "VEC3"
        }, 
        {
            "bufferView" : 3, 
            "componentType" : 5126, 
            "count" : 1441, 
            "max" : [
                0.9905938506126404, 
                0.9998297698621172
            ], 
            "min" : [
                0.0001702301378827542, 
                0.00017023086547851562
            ], 
            "type" : "VEC2"
        }, 
        {
            "bufferView" : 4, 
            "componentType" : 5123, 
            "count" : 600, 
            "max" : [
                213
            ], 
            "min" : [
                0
            ], 
            "type" : "SCALAR"
        }, 
        {
            "bufferView" : 5, 
            "componentType" : 5126, 
            "count" : 214, 
            "max" : [
                0.20927853882312775, 
                1.82779860496521, 
                0.13775862753391266
            ], 
            "min" : [
                -0.2198868840932846, 
                1.0878788232803345, 
                -0.14849942922592163
            ], 
            "type" : "VEC3"
        }, 
        {
            "bufferView" : 6, 
            "componentType" : 5126, 
            "count" : 214, 
            "max" : [
                0.9893490672111511, 
                1.0, 
                0.999786376953125
            ], 
            "min" : [
                -0.9884639978408813, 
                -0.29606005549430847, 
                -0.999786376953125
            ], 
            "type" : "VEC3"
        }, 
        {
            "bufferView" : 7, 
            "componentType" : 5126, 
            "count" : 214, 
            "max" : [
                1.0086452960968018, 
                0.9976395005360246
            ], 
            "min" : [
                0.00019826028437819332, 
                0.0001983046531677246
            ], 
            "type" : "VEC2"
        }
    ], 
    "asset" : {
        "generator" : "Khronos Blender glTF 2.0 exporter", 
        "version" : "2.0"
    }, 
    "bufferViews" : [
        {
            "buffer" : 0, 
            "byteLength" : 8388, 
            "byteOffset" : 0, 
            "target" : 34963
        }, 
        {
            "buffer" : 0, 
            "byteLength" : 17292, 
            "byteOffset" : 8388, 
            "target" : 34962
        }, 
        {
            "buffer" : 0, 
            "byteLength" : 17292, 
            "byteOffset" : 25680, 
            "target" : 34962
        }, 
        {
            "buffer" : 0, 
            "byteLength" : 11528, 
            "byteOffset" : 42972, 
            "target" : 34962
        }, 
        {
            "buffer" : 0, 
            "byteLength" : 1200, 
            "byteOffset" : 54500, 
            "target" : 34963
        }, 
        {
            "buffer" : 0, 
            "byteLength" : 2568, 
            "byteOffset" : 55700, 
            "target" : 34962
        }, 
        {
            "buffer" : 0, 
            "byteLength" : 2568, 
            "byteOffset" : 58268, 
            "target" : 34962
        }, 
        {
            "buffer" : 0, 
            "byteLength" : 1712, 
            "byteOffset" : 60836, 
            "target" : 34962
        }
    ], 
    "buffers" : [
        {
            "byteLength" : 62548, 
            "uri" : "bomb.bin"
        }
    ], 
    "images" : [
        {
            "uri" : "FabricRope001_REFL_1K.png"
        }, 
        {
            "uri" : "FabricRope001_COL_1K.png"
        }
    ], 
    "materials" : [
        {
            "name" : "Material", 
            "pbrMetallicRoughness" : {
                "baseColorFactor" : [
                    0.6400000190734865, 
                    0.6400000190734865, 
                    0.6400000190734865, 
                    1.0
                ], 
                "baseColorTexture" : {
                    "index" : 0
                }, 
                "metallicFactor" : 0.0
            }
        }, 
        {
            "name" : "Material.001", 
            "pbrMetallicRoughness" : {
                "baseColorFactor" : [
                    0.6400000190734865, 
                    0.6400000190734865, 
                    0.6400000190734865, 
                    1.0
                ], 
                "baseColorTexture" : {
                    "index" : 1
                }, 
                "metallicFactor" : 0.0
            }
        }
    ], 
    "meshes" : [
        {
            "name" : "Sphere", 
            "primitives" : [
                {
                    "attributes" : {
                        "NORMAL" : 2, 
                        "POSITION" : 1, 
                        "TEXCOORD_0" : 3
                    }, 
                    "indices" : 0, 
                    "material" : 0
                }, 
                {
                    "attributes" : {
                        "NORMAL" : 6, 
                        "POSITION" : 5, 
                        "TEXCOORD_0" : 7
                    }, 
                    "indices" : 4, 
                    "material" : 1
                }
            ]
        }
    ], 
    "nodes" : [
        {
            "mesh" : 0, 
            "name" : "Bomb", 
            "rotation" : [
                -5.029566232556972e-16, 
                1.5495992045089224e-08, 
                -0.11533287912607193, 
                0.9933269023895264
            ], 
            "scale" : [
                0.44609391689300537, 
                0.44609394669532776, 
                0.44609391689300537
            ], 
            "translation" : [
                0.0, 
                0.4625171422958374, 
                -0.0
            ]
        }
    ], 
    "samplers" : [
        {}
    ], 
    "scene" : 0, 
    "scenes" : [
        {
            "name" : "Scene", 
            "nodes" : [
                0
            ]
        }
    ], 
    "textures" : [
        {
            "sampler" : 0, 
            "source" : 0
        }, 
        {
            "sampler" : 0, 
            "source" : 1
        }
    ]
}
