{
    "accessors" : [
        {
            "bufferView" : 0, 
            "componentType" : 5123, 
            "count" : 300, 
            "max" : [
                160
            ], 
            "min" : [
                0
            ], 
            "type" : "SCALAR"
        }, 
        {
            "bufferView" : 1, 
            "componentType" : 5126, 
            "count" : 161, 
            "max" : [
                0.10813432931900024, 
                1.1888796091079712, 
                0.10783348977565765
            ], 
            "min" : [
                -0.1094878613948822, 
                1.1520189046859741, 
                -0.10978870838880539
            ], 
            "type" : "VEC3"
        }, 
        {
            "bufferView" : 2, 
            "componentType" : 5126, 
            "count" : 161, 
            "max" : [
                0.9126982092857361, 
                1.0, 
                0.9126982092857361
            ], 
            "min" : [
                -0.9126982092857361, 
                0.38221076130867004, 
                -0.9126982092857361
            ], 
            "type" : "VEC3"
        }, 
        {
            "bufferView" : 3, 
            "componentType" : 5126, 
            "count" : 161, 
            "max" : [
                0.7216532230377197, 
                0.7216532230377197
            ], 
            "min" : [
                0.2783467769622803, 
                0.2783467769622803
            ], 
            "type" : "VEC2"
        }, 
        {
            "bufferView" : 4, 
            "componentType" : 5123, 
            "count" : 540, 
            "max" : [
                100
            ], 
            "min" : [
                0
            ], 
            "type" : "SCALAR"
        }, 
        {
            "bufferView" : 5, 
            "componentType" : 5126, 
            "count" : 101, 
            "max" : [
                0.20995615422725677, 
                0.015438128262758255, 
                0.20965535938739777
            ], 
            "min" : [
                -0.21130968630313873, 
                0.0058208489790558815, 
                -0.21161048114299774
            ], 
            "type" : "VEC3"
        }, 
        {
            "bufferView" : 6, 
            "componentType" : 5126, 
            "count" : 101, 
            "max" : [
                0.6612445712089539, 
                -0.7501449584960938, 
                0.6612445712089539
            ], 
            "min" : [
                -0.6612445712089539, 
                -1.0, 
                -0.6612445712089539
            ], 
            "type" : "VEC3"
        }, 
        {
            "bufferView" : 7, 
            "componentType" : 5126, 
            "count" : 101, 
            "max" : [
                1.0, 
                1.0
            ], 
            "min" : [
                0.0, 
                0.0
            ], 
            "type" : "VEC2"
        }, 
        {
            "bufferView" : 8, 
            "componentType" : 5123, 
            "count" : 480, 
            "max" : [
                119
            ], 
            "min" : [
                0
            ], 
            "type" : "SCALAR"
        }, 
        {
            "bufferView" : 9, 
            "componentType" : 5126, 
            "count" : 120, 
            "max" : [
                0.20995615422725677, 
                1.1422818899154663, 
                0.20965535938739777
            ], 
            "min" : [
                -0.21130968630313873, 
                0.015438108704984188, 
                -0.21161052584648132
            ], 
            "type" : "VEC3"
        }, 
        {
            "bufferView" : 10, 
            "componentType" : 5126, 
            "count" : 120, 
            "max" : [
                1.0, 
                0.0, 
                1.0
            ], 
            "min" : [
                -1.0, 
                0.0, 
                -1.0
            ], 
            "type" : "VEC3"
        }, 
        {
            "bufferView" : 11, 
            "componentType" : 5126, 
            "count" : 120, 
            "max" : [
                0.734375, 
                1.0
            ], 
            "min" : [
                0.0, 
                0.0
            ], 
            "type" : "VEC2"
        }, 
        {
            "bufferView" : 12, 
            "componentType" : 5123, 
            "count" : 480, 
            "max" : [
                99
            ], 
            "min" : [
                0
            ], 
            "type" : "SCALAR"
        }, 
        {
            "bufferView" : 13, 
            "componentType" : 5126, 
            "count" : 100, 
            "max" : [
                0.20995615422725677, 
                1.1520189046859741, 
                0.20965532958507538
            ], 
            "min" : [
                -0.21130968630313873, 
                1.1422818899154663, 
                -0.21161052584648132
            ], 
            "type" : "VEC3"
        }, 
        {
            "bufferView" : 14, 
            "componentType" : 5126, 
            "count" : 100, 
            "max" : [
                0.5840327143669128, 
                1.0, 
                0.5840327143669128
            ], 
            "min" : [
                -0.5840327143669128, 
                0.8117008209228516, 
                -0.5840327143669128
            ], 
            "type" : "VEC3"
        }, 
        {
            "bufferView" : 15, 
            "componentType" : 5126, 
            "count" : 100, 
            "max" : [
                1.0, 
                1.0
            ], 
            "min" : [
                0.0, 
                0.0
            ], 
            "type" : "VEC2"
        }
    ], 
    "asset" : {
        "generator" : "Khronos Blender glTF 2.0 exporter", 
        "version" : "2.0"
    }, 
    "bufferViews" : [
        {
            "buffer" : 0, 
            "byteLength" : 600, 
            "byteOffset" : 0, 
            "target" : 34963
        }, 
        {
            "buffer" : 0, 
            "byteLength" : 1932, 
            "byteOffset" : 600, 
            "target" : 34962
        }, 
        {
            "buffer" : 0, 
            "byteLength" : 1932, 
            "byteOffset" : 2532, 
            "target" : 34962
        }, 
        {
            "buffer" : 0, 
            "byteLength" : 1288, 
            "byteOffset" : 4464, 
            "target" : 34962
        }, 
        {
            "buffer" : 0, 
            "byteLength" : 1080, 
            "byteOffset" : 5752, 
            "target" : 34963
        }, 
        {
            "buffer" : 0, 
            "byteLength" : 1212, 
            "byteOffset" : 6832, 
            "target" : 34962
        }, 
        {
            "buffer" : 0, 
            "byteLength" : 1212, 
            "byteOffset" : 8044, 
            "target" : 34962
        }, 
        {
            "buffer" : 0, 
            "byteLength" : 808, 
            "byteOffset" : 9256, 
            "target" : 34962
        }, 
        {
            "buffer" : 0, 
            "byteLength" : 960, 
            "byteOffset" : 10064, 
            "target" : 34963
        }, 
        {
            "buffer" : 0, 
            "byteLength" : 1440, 
            "byteOffset" : 11024, 
            "target" : 34962
        }, 
        {
            "buffer" : 0, 
            "byteLength" : 1440, 
            "byteOffset" : 12464, 
            "target" : 34962
        }, 
        {
            "buffer" : 0, 
            "byteLength" : 960, 
            "byteOffset" : 13904, 
            "target" : 34962
        }, 
        {
            "buffer" : 0, 
            "byteLength" : 960, 
            "byteOffset" : 14864, 
            "target" : 34963
        }, 
        {
            "buffer" : 0, 
            "byteLength" : 1200, 
            "byteOffset" : 15824, 
            "target" : 34962
        }, 
        {
            "buffer" : 0, 
            "byteLength" : 1200, 
            "byteOffset" : 17024, 
            "target" : 34962
        }, 
        {
            "buffer" : 0, 
            "byteLength" : 800, 
            "byteOffset" : 18224, 
            "target" : 34962
        }
    ], 
    "buffers" : [
        {
            "byteLength" : 19024, 
            "uri" : "battery.bin"
        }
    ], 
    "images" : [
        {
            "uri" : "large_c_battery_3d_model_3ds_dwg_dxf_lwo_l.png"
        }
    ], 
    "materials" : [
        {
            "name" : "Material #3", 
            "pbrMetallicRoughness" : {
                "baseColorFactor" : [
                    0.0, 
                    0.0, 
                    0.0, 
                    1.0
                ], 
                "baseColorTexture" : {
                    "index" : 0
                }, 
                "metallicFactor" : 0.0
            }
        }, 
        {
            "name" : "Material #4", 
            "pbrMetallicRoughness" : {
                "baseColorFactor" : [
                    0.0, 
                    0.0, 
                    0.0, 
                    1.0
                ], 
                "metallicFactor" : 0.0
            }
        }, 
        {
            "name" : "Material.001", 
            "pbrMetallicRoughness" : {
                "baseColorFactor" : [
                    0.6400000190734865, 
                    0.6400000190734865, 
                    0.6400000190734865, 
                    1.0
                ], 
                "baseColorTexture" : {
                    "index" : 0
                }, 
                "metallicFactor" : 0.0
            }
        }, 
        {
            "name" : "Material.002", 
            "pbrMetallicRoughness" : {
                "baseColorFactor" : [
                    0.5211246091294974, 
                    0.5211246091294974, 
                    0.5211246091294974, 
                    1.0
                ], 
                "metallicFactor" : 0.0
            }
        }
    ], 
    "meshes" : [
        {
            "name" : "Untitled.001", 
            "primitives" : [
                {
                    "attributes" : {
                        "NORMAL" : 2, 
                        "POSITION" : 1, 
                        "TEXCOORD_0" : 3
                    }, 
                    "indices" : 0, 
                    "material" : 3
                }
            ]
        }, 
        {
            "name" : "Untitled.003", 
            "primitives" : [
                {
                    "attributes" : {
                        "NORMAL" : 6, 
                        "POSITION" : 5, 
                        "TEXCOORD_0" : 7
                    }, 
                    "indices" : 4, 
                    "material" : 0
                }
            ]
        }, 
        {
            "name" : "Untitled", 
            "primitives" : [
                {
                    "attributes" : {
                        "NORMAL" : 10, 
                        "POSITION" : 9, 
                        "TEXCOORD_0" : 11
                    }, 
                    "indices" : 8, 
                    "material" : 2
                }
            ]
        }, 
        {
            "name" : "Untitled.002", 
            "primitives" : [
                {
                    "attributes" : {
                        "NORMAL" : 14, 
                        "POSITION" : 13, 
                        "TEXCOORD_0" : 15
                    }, 
                    "indices" : 12, 
                    "material" : 1
                }
            ]
        }
    ], 
    "nodes" : [
        {
            "mesh" : 1, 
            "name" : "Bottom"
        }, 
        {
            "mesh" : 2, 
            "name" : "ChamferCyl001"
        }, 
        {
            "mesh" : 0, 
            "name" : "Metal"
        }, 
        {
            "mesh" : 3, 
            "name" : "Top"
        }
    ], 
    "samplers" : [
        {}
    ], 
    "scene" : 0, 
    "scenes" : [
        {
            "name" : "Scene", 
            "nodes" : [
                0, 
                3, 
                2, 
                1
            ]
        }
    ], 
    "textures" : [
        {
            "sampler" : 0, 
            "source" : 0
        }, 
        {
            "sampler" : 0, 
            "source" : 0
        }
    ]
}
