{
    "accessors" : [
        {
            "bufferView" : 0, 
            "componentType" : 5123, 
            "count" : 840, 
            "max" : [
                261
            ], 
            "min" : [
                0
            ], 
            "type" : "SCALAR"
        }, 
        {
            "bufferView" : 1, 
            "componentType" : 5126, 
            "count" : 262, 
            "max" : [
                0.16899308562278748, 
                0.9581698179244995, 
                0.16865301132202148
            ], 
            "min" : [
                -0.17052337527275085, 
                0.004691275302320719, 
                -0.17086344957351685
            ], 
            "type" : "VEC3"
        }, 
        {
            "bufferView" : 2, 
            "componentType" : 5126, 
            "count" : 262, 
            "max" : [
                0.9126986265182495, 
                1.0, 
                0.9126985669136047
            ], 
            "min" : [
                -0.9126986265182495, 
                -1.0, 
                -0.9126987457275391
            ], 
            "type" : "VEC3"
        }, 
        {
            "bufferView" : 3, 
            "componentType" : 5126, 
            "count" : 262, 
            "max" : [
                1.0, 
                1.0
            ], 
            "min" : [
                0.0, 
                0.0
            ], 
            "type" : "VEC2"
        }, 
        {
            "bufferView" : 4, 
            "componentType" : 5123, 
            "count" : 480, 
            "max" : [
                99
            ], 
            "min" : [
                0
            ], 
            "type" : "SCALAR"
        }, 
        {
            "bufferView" : 5, 
            "componentType" : 5126, 
            "count" : 100, 
            "max" : [
                0.16899308562278748, 
                0.9284620881080627, 
                0.1686529666185379
            ], 
            "min" : [
                -0.17052337527275085, 
                0.9206146001815796, 
                -0.17086349427700043
            ], 
            "type" : "VEC3"
        }, 
        {
            "bufferView" : 6, 
            "componentType" : 5126, 
            "count" : 100, 
            "max" : [
                0.5840327143669128, 
                1.0, 
                0.5840327143669128
            ], 
            "min" : [
                -0.5840327143669128, 
                0.8117008209228516, 
                -0.5840327143669128
            ], 
            "type" : "VEC3"
        }, 
        {
            "bufferView" : 7, 
            "componentType" : 5126, 
            "count" : 100, 
            "max" : [
                1.0, 
                1.0
            ], 
            "min" : [
                0.0, 
                0.0
            ], 
            "type" : "VEC2"
        }, 
        {
            "bufferView" : 8, 
            "componentType" : 5123, 
            "count" : 480, 
            "max" : [
                119
            ], 
            "min" : [
                0
            ], 
            "type" : "SCALAR"
        }, 
        {
            "bufferView" : 9, 
            "componentType" : 5126, 
            "count" : 120, 
            "max" : [
                0.16899308562278748, 
                0.9206146001815796, 
                0.16865301132202148
            ], 
            "min" : [
                -0.17052337527275085, 
                0.012442243285477161, 
                -0.17086349427700043
            ], 
            "type" : "VEC3"
        }, 
        {
            "bufferView" : 10, 
            "componentType" : 5126, 
            "count" : 120, 
            "max" : [
                1.0, 
                0.0, 
                1.0
            ], 
            "min" : [
                -1.0, 
                0.0, 
                -1.0
            ], 
            "type" : "VEC3"
        }, 
        {
            "bufferView" : 11, 
            "componentType" : 5126, 
            "count" : 120, 
            "max" : [
                1.0, 
                1.0
            ], 
            "min" : [
                0.0, 
                0.0
            ], 
            "type" : "VEC2"
        }
    ], 
    "asset" : {
        "generator" : "Khronos Blender glTF 2.0 exporter", 
        "version" : "2.0"
    }, 
    "bufferViews" : [
        {
            "buffer" : 0, 
            "byteLength" : 1680, 
            "byteOffset" : 0, 
            "target" : 34963
        }, 
        {
            "buffer" : 0, 
            "byteLength" : 3144, 
            "byteOffset" : 1680, 
            "target" : 34962
        }, 
        {
            "buffer" : 0, 
            "byteLength" : 3144, 
            "byteOffset" : 4824, 
            "target" : 34962
        }, 
        {
            "buffer" : 0, 
            "byteLength" : 2096, 
            "byteOffset" : 7968, 
            "target" : 34962
        }, 
        {
            "buffer" : 0, 
            "byteLength" : 960, 
            "byteOffset" : 10064, 
            "target" : 34963
        }, 
        {
            "buffer" : 0, 
            "byteLength" : 1200, 
            "byteOffset" : 11024, 
            "target" : 34962
        }, 
        {
            "buffer" : 0, 
            "byteLength" : 1200, 
            "byteOffset" : 12224, 
            "target" : 34962
        }, 
        {
            "buffer" : 0, 
            "byteLength" : 800, 
            "byteOffset" : 13424, 
            "target" : 34962
        }, 
        {
            "buffer" : 0, 
            "byteLength" : 960, 
            "byteOffset" : 14224, 
            "target" : 34963
        }, 
        {
            "buffer" : 0, 
            "byteLength" : 1440, 
            "byteOffset" : 15184, 
            "target" : 34962
        }, 
        {
            "buffer" : 0, 
            "byteLength" : 1440, 
            "byteOffset" : 16624, 
            "target" : 34962
        }, 
        {
            "buffer" : 0, 
            "byteLength" : 960, 
            "byteOffset" : 18064, 
            "target" : 34962
        }
    ], 
    "buffers" : [
        {
            "byteLength" : 19024, 
            "uri" : "battery.bin"
        }
    ], 
    "images" : [
        {
            "uri" : "large_c_battery_3d_model_3ds_dwg_dxf_lwo_l.png"
        }
    ], 
    "materials" : [
        {
            "name" : "Material #3.002", 
            "pbrMetallicRoughness" : {
                "baseColorFactor" : [
                    0.0, 
                    0.0, 
                    0.0, 
                    1.0
                ], 
                "metallicFactor" : 0.0
            }
        }, 
        {
            "name" : "Material #4.002", 
            "pbrMetallicRoughness" : {
                "baseColorFactor" : [
                    0.0658823559564703, 
                    0.021960786312234193, 
                    0.003137255134243594, 
                    1.0
                ], 
                "metallicFactor" : 0.0
            }
        }, 
        {
            "name" : "Material.003", 
            "pbrMetallicRoughness" : {
                "baseColorFactor" : [
                    0.6400000190734865, 
                    0.6400000190734865, 
                    0.6400000190734865, 
                    1.0
                ], 
                "baseColorTexture" : {
                    "index" : 0
                }, 
                "metallicFactor" : 0.0
            }
        }
    ], 
    "meshes" : [
        {
            "name" : "Untitled.010", 
            "primitives" : [
                {
                    "attributes" : {
                        "NORMAL" : 2, 
                        "POSITION" : 1, 
                        "TEXCOORD_0" : 3
                    }, 
                    "indices" : 0, 
                    "material" : 0
                }, 
                {
                    "attributes" : {
                        "NORMAL" : 6, 
                        "POSITION" : 5, 
                        "TEXCOORD_0" : 7
                    }, 
                    "indices" : 4, 
                    "material" : 1
                }, 
                {
                    "attributes" : {
                        "NORMAL" : 10, 
                        "POSITION" : 9, 
                        "TEXCOORD_0" : 11
                    }, 
                    "indices" : 8, 
                    "material" : 2
                }
            ]
        }
    ], 
    "nodes" : [
        {
            "mesh" : 0, 
            "name" : "Top"
        }
    ], 
    "samplers" : [
        {}
    ], 
    "scene" : 0, 
    "scenes" : [
        {
            "name" : "Scene", 
            "nodes" : [
                0
            ]
        }
    ], 
    "textures" : [
        {
            "sampler" : 0, 
            "source" : 0
        }
    ]
}
