{
    "accessors" : [
        {
            "bufferView" : 0, 
            "componentType" : 5123, 
            "count" : 504, 
            "max" : [
                199
            ], 
            "min" : [
                0
            ], 
            "type" : "SCALAR"
        }, 
        {
            "bufferView" : 1, 
            "componentType" : 5126, 
            "count" : 200, 
            "max" : [
                0.36465343832969666, 
                0.8739204406738281, 
                0.3707587718963623
            ], 
            "min" : [
                -0.3610764741897583, 
                0.004793110769242048, 
                -0.3598274290561676
            ], 
            "type" : "VEC3"
        }, 
        {
            "bufferView" : 2, 
            "componentType" : 5126, 
            "count" : 200, 
            "max" : [
                0.9939268231391907, 
                0.999847412109375, 
                0.9958189725875854
            ], 
            "min" : [
                -0.9939268231391907, 
                -0.99981689453125, 
                -0.9915463924407959
            ], 
            "type" : "VEC3"
        }, 
        {
            "bufferView" : 3, 
            "componentType" : 5126, 
            "count" : 200, 
            "max" : [
                0.952210009098053, 
                0.9409799985587597
            ], 
            "min" : [
                0.18505999445915222, 
                0.1944599747657776
            ], 
            "type" : "VEC2"
        }
    ], 
    "asset" : {
        "generator" : "Khronos Blender glTF 2.0 exporter", 
        "version" : "2.0"
    }, 
    "bufferViews" : [
        {
            "buffer" : 0, 
            "byteLength" : 1008, 
            "byteOffset" : 0, 
            "target" : 34963
        }, 
        {
            "buffer" : 0, 
            "byteLength" : 2400, 
            "byteOffset" : 1008, 
            "target" : 34962
        }, 
        {
            "buffer" : 0, 
            "byteLength" : 2400, 
            "byteOffset" : 3408, 
            "target" : 34962
        }, 
        {
            "buffer" : 0, 
            "byteLength" : 1600, 
            "byteOffset" : 5808, 
            "target" : 34962
        }
    ], 
    "buffers" : [
        {
            "byteLength" : 7408, 
            "uri" : "blue_bomb.bin"
        }
    ], 
    "images" : [
        {
            "uri" : "texture.png"
        }
    ], 
    "materials" : [
        {
            "name" : "texture.png", 
            "pbrMetallicRoughness" : {
                "baseColorFactor" : [
                    0.800000011920929, 
                    0.800000011920929, 
                    0.800000011920929, 
                    1.0
                ], 
                "baseColorTexture" : {
                    "index" : 0
                }, 
                "metallicFactor" : 0.0
            }
        }
    ], 
    "meshes" : [
        {
            "name" : "Mesh.469_DrawCall_317", 
            "primitives" : [
                {
                    "attributes" : {
                        "NORMAL" : 2, 
                        "POSITION" : 1, 
                        "TEXCOORD_0" : 3
                    }, 
                    "indices" : 0, 
                    "material" : 0
                }
            ]
        }
    ], 
    "nodes" : [
        {
            "mesh" : 0, 
            "name" : "Mesh.469_DrawCall_317"
        }
    ], 
    "samplers" : [
        {}
    ], 
    "scene" : 0, 
    "scenes" : [
        {
            "name" : "Scene", 
            "nodes" : [
                0
            ]
        }
    ], 
    "textures" : [
        {
            "sampler" : 0, 
            "source" : 0
        }
    ]
}
